<svg id="Layer_1" enable-background="new 0 0 256 256" height="512" viewBox="0 0 256 256" width="512" xmlns="http://www.w3.org/2000/svg"><g><path d="m223.943 223.753h-188.386c-6.6 0-12-5.4-12-12v-146.675c0-6.6 5.4-12 12-12h188.386c6.6 0 12 5.4 12 12v146.675c0 6.6-5.4 12-12 12z" fill="#63bce7"/><g><path d="m41.616 211.753v-146.675c0-6.6 5.4-12 12-12h-18.059c-6.6 0-12 5.4-12 12v146.675c0 6.6 5.4 12 12 12h18.059c-6.6 0-12-5.4-12-12z" fill="#6377e7"/></g><g><path d="m217.884 211.753v-146.675c0-6.6-5.4-12-12-12h18.059c6.6 0 12 5.4 12 12v146.675c0 6.6-5.4 12-12 12h-18.059c6.6 0 12-5.4 12-12z" fill="#67dceb"/></g><g><path d="m235.943 65.078c0-6.6-5.4-12-12-12h-188.386c-6.6 0-12 5.4-12 12v27.596h212.386z" fill="#f46275"/></g><g><path d="m53.616 53.078h-18.059c-6.6 0-12 5.4-12 12v27.596h18.059v-27.596c0-6.6 5.4-12 12-12z" fill="#f43075"/></g><g><path d="m205.884 53.078h18.059c6.6 0 12 5.4 12 12v27.596h-18.059v-27.596c0-6.6-5.4-12-12-12z" fill="#f48875"/></g><g fill="#f8af23"><circle cx="48.482" cy="72.876" r="8.28"/><circle cx="73.862" cy="72.876" r="8.28"/><circle cx="99.242" cy="72.876" r="8.28"/></g><path d="m215.539 79.558c0 23.377-10.172 44.371-26.32 58.797 31.41-1.241 56.496-27.083 56.496-58.797s-25.086-57.557-56.496-58.797c16.148 14.426 26.32 35.42 26.32 58.797z" fill="#f8af23"/><g><path d="m189.218 20.761c2.247 2.007 4.374 4.146 6.378 6.397 19.032 9.747 32.06 29.548 32.06 52.401s-13.028 42.654-32.06 52.401c-2.004 2.25-4.131 4.389-6.378 6.397 31.41-1.241 56.496-27.083 56.496-58.798s-25.086-57.557-56.496-58.798z" fill="#f8d323"/></g><path d="m158.176 79.558c0-23.377 10.172-44.371 26.32-58.797-31.41 1.241-56.496 27.083-56.496 58.797s25.086 57.557 56.496 58.797c-16.148-14.425-26.32-35.42-26.32-58.797z" fill="#f8af23"/><path d="m184.496 20.761c-16.149 14.426-26.32 35.42-26.32 58.797s10.172 44.371 26.32 58.797c.784.031 1.569.06 2.361.06s1.577-.029 2.361-.06c16.149-14.426 26.32-35.42 26.32-58.797s-10.172-44.371-26.32-58.797c-.784-.031-1.569-.06-2.361-.06s-1.577.029-2.361.06z" fill="#f8af23"/><g fill="#f46275"><path d="m103.229 170.385-10.506-11.33c-.412-.444-.413-1.13-.003-1.576l10.509-11.434c.22-.239.53-.376.855-.376h8.99c1.012 0 1.54 1.203.855 1.948l-9.062 9.861c-.41.446-.408 1.132.003 1.576l9.039 9.75c.689.744.162 1.952-.852 1.952h-8.977c-.322.001-.631-.133-.851-.371z"/><path d="m138.194 134.712-11.147 47.538c-.124.524-.592.895-1.131.895h-6.98c-.75 0-1.303-.7-1.131-1.429l11.15-47.538c.124-.524.592-.895 1.131-.895h6.978c.749 0 1.303.7 1.13 1.429z"/><path d="m142.925 145.67h8.992c.325 0 .635.136.855.376l10.507 11.434c.41.446.408 1.132-.003 1.576l-10.504 11.33c-.22.237-.529.372-.852.372h-8.979c-1.014 0-1.542-1.208-.852-1.952l9.041-9.75c.412-.444.413-1.13.003-1.576l-9.064-9.861c-.684-.745-.155-1.949.856-1.949z"/></g><g fill="#3f3679"><path d="m27.7 233.799h-18.172c-.829 0-1.5.672-1.5 1.5s.671 1.5 1.5 1.5h18.172c.829 0 1.5-.672 1.5-1.5s-.671-1.5-1.5-1.5z"/><path d="m246.472 233.799h-18.172c-.829 0-1.5.672-1.5 1.5s.671 1.5 1.5 1.5h18.172c.829 0 1.5-.672 1.5-1.5s-.671-1.5-1.5-1.5z"/><path d="m213.789 233.799h-171.578c-.829 0-1.5.672-1.5 1.5s.671 1.5 1.5 1.5h171.577c.829 0 1.5-.672 1.5-1.5s-.671-1.5-1.499-1.5z"/><path d="m247.972 223.753c0-.828-.671-1.5-1.5-1.5h-14.062c3.066-2.477 5.033-6.261 5.033-10.5v-98.857c0-.088-.011-.172-.026-.256 6.206-9.498 9.797-20.863 9.797-33.081 0-32.527-25.448-59.012-57.936-60.297-1.608-.064-3.234-.064-4.841 0-22.399.886-41.448 13.752-51.121 32.316h-97.759c-7.444 0-13.5 6.056-13.5 13.5v27.597 119.078c0 4.239 1.968 8.023 5.033 10.5h-17.562c-.829 0-1.5.672-1.5 1.5s.671 1.5 1.5 1.5h26.029 188.386 22.529c.829 0 1.5-.672 1.5-1.5zm-118.472-144.194c0-6.949 1.232-13.604 3.477-19.766h26.181c-1.629 6.406-2.482 13.041-2.482 19.766s.853 13.359 2.482 19.766h-26.181c-2.245-6.163-3.477-12.817-3.477-19.766zm84.539 0c0 6.732-.887 13.371-2.581 19.766h-49.201c-1.694-6.395-2.581-13.034-2.581-19.766s.887-13.371 2.581-19.766h49.202c1.692 6.395 2.58 13.034 2.58 19.766zm-28.943 57.319c-10.39-9.412-17.906-21.4-21.964-34.554h47.451c-4.058 13.154-11.575 25.142-21.964 34.554-1.171.043-2.353.043-3.523 0zm-25.117-34.554c3.798 12.835 10.771 24.632 20.389 34.2-20.927-2.334-38.256-15.743-46.195-34.2zm53.756 0h25.806c-7.938 18.457-25.267 31.865-46.195 34.2 9.619-9.568 16.591-21.365 20.389-34.2zm27.002-3h-26.181c1.629-6.406 2.482-13.041 2.482-19.766s-.853-13.359-2.482-19.766h26.181c2.246 6.162 3.477 12.816 3.477 19.766s-1.231 13.604-3.477 19.766zm-1.196-42.531h-25.805c-3.798-12.835-10.771-24.633-20.389-34.2 20.927 2.335 38.255 15.743 46.194 34.2zm-50.922-34.554c10.39 9.412 17.906 21.399 21.964 34.554h-47.451c4.058-13.154 11.574-25.142 21.964-34.554 1.169-.044 2.352-.044 3.523 0zm-8.251.354c-9.618 9.568-16.591 21.365-20.389 34.2h-25.805c7.938-18.457 25.267-31.865 46.194-34.2zm-155.311 42.485c0-5.79 4.71-10.5 10.5-10.5h96.308c-3.444 7.612-5.365 16.066-5.365 24.98 0 3.975.386 7.857 1.112 11.616h-102.555zm10.5 157.175c-5.79 0-10.5-4.71-10.5-10.5v-103.313h53.443c.829 0 1.5-.672 1.5-1.5s-.671-1.5-1.5-1.5h-53.443v-11.265h103.211c6.292 25.515 28.716 44.595 56.168 45.68.306.012.614.013.921.023v16.836h-20.785c-.061-.084-.116-.171-.188-.249l-10.507-11.434c-.503-.548-1.217-.861-1.96-.861h-8.992c-1.056 0-2.013.625-2.438 1.593-.424.967-.237 2.094.478 2.87l8.853 9.632-8.829 9.521c-.72.776-.912 1.904-.488 2.875s1.381 1.598 2.44 1.598h8.979c.736 0 1.446-.31 1.952-.853l10.504-11.33c.105-.113.194-.235.275-.361h22.205c.829 0 1.5-.672 1.5-1.5v-18.336c.306-.01.615-.011.92-.023 18.453-.729 34.627-9.594 45.165-23.073v94.972c0 5.79-4.71 10.5-10.5 10.5h-188.384zm116.673-62.177c.937-1.011.941-2.597.008-3.611l-8.543-9.295h8.073l10.196 11.095-10.191 10.993h-8.058z"/><path d="m48.482 63.096c-5.393 0-9.78 4.388-9.78 9.78s4.387 9.78 9.78 9.78 9.78-4.388 9.78-9.78-4.387-9.78-9.78-9.78zm0 16.56c-3.739 0-6.78-3.042-6.78-6.78s3.042-6.78 6.78-6.78 6.78 3.042 6.78 6.78-3.041 6.78-6.78 6.78z"/><path d="m73.862 63.096c-5.393 0-9.78 4.388-9.78 9.78s4.387 9.78 9.78 9.78 9.781-4.388 9.781-9.78-4.388-9.78-9.781-9.78zm0 16.56c-3.739 0-6.78-3.042-6.78-6.78s3.042-6.78 6.78-6.78 6.781 3.042 6.781 6.78-3.042 6.78-6.781 6.78z"/><path d="m99.242 63.096c-5.393 0-9.78 4.388-9.78 9.78s4.387 9.78 9.78 9.78 9.78-4.388 9.78-9.78-4.387-9.78-9.78-9.78zm0 16.56c-3.739 0-6.78-3.042-6.78-6.78s3.042-6.78 6.78-6.78 6.78 3.042 6.78 6.78-3.042 6.78-6.78 6.78z"/><path d="m97.75 106.94c0-.828-.671-1.5-1.5-1.5h-6.75c-.829 0-1.5.672-1.5 1.5s.671 1.5 1.5 1.5h6.75c.829 0 1.5-.671 1.5-1.5z"/><path d="m115.512 145.763c-.424-.968-1.381-1.593-2.438-1.593h-8.99c-.742 0-1.456.313-1.96.861l-10.51 11.434c-.931 1.015-.928 2.601.008 3.61l10.506 11.33c.502.542 1.213.853 1.952.853h8.978c1.059 0 2.016-.627 2.439-1.598s.232-2.099-.487-2.874l-8.828-9.521 8.851-9.631c.716-.778.904-1.905.479-2.871zm-11.749 10.702c-.931 1.015-.928 2.601.008 3.61l8.513 9.183h-8.056l-10.194-10.993 10.198-11.095h8.071z"/><path d="m137.063 131.783h-6.978c-1.24 0-2.305.843-2.591 2.052l-11.149 47.536c-.188.797-.005 1.621.503 2.264.508.642 1.269 1.01 2.088 1.01h6.979c1.24 0 2.305-.843 2.591-2.052l11.147-47.537c.188-.796.004-1.621-.503-2.263s-1.268-1.01-2.087-1.01zm-11.415 49.862h-6.285l10.991-46.861h6.283z"/></g></g></svg>