<?xml version="1.0" encoding="utf-8"?><svg xmlns="http://www.w3.org/2000/svg" xmlns:xlink="http://www.w3.org/1999/xlink"><symbol viewBox="0 0 92.87 49.68" id="icon-arrow">
    <path d="M91.92 1a3.28 3.28 0 0 0-4.64 0l-40.8 40.84L5.6 1A3.28 3.28 0 0 0 1 5.6l43.08 43.12a3.2 3.2 0 0 0 2.32 1 3.34 3.34 0 0 0 2.32-1L91.84 5.6a3.21 3.21 0 0 0 .08-4.6z"/>
</symbol><symbol viewBox="0 0 93 50" id="icon-arrow-down">
    <path d="M.5.5l43 43 43-43" stroke-width="5" fill="none" stroke="#7ec681" stroke-linecap="round" stroke-linejoin="round"/>
</symbol><symbol viewBox="0 0 49.68 92.87" id="icon-arrow-right">
    <path d="M1 91.92a3.28 3.28 0 0 0 0-4.64l40.84-40.8L1 5.6A3.28 3.28 0 0 0 5.6 1l43.12 43.08a3.2 3.2 0 0 0 1 2.32 3.34 3.34 0 0 0-1 2.32L5.6 91.84a3.21 3.21 0 0 0-4.6.08z" fill="#7ec681"/>
</symbol><symbol viewBox="0 0 34.7 17.35" id="icon-box-open">
    <g data-name="Layer 2">
        <path d="M0 0h34.7L17.35 17.35z" fill-rule="evenodd" data-name="Layer 1"/>
    </g>
</symbol><symbol viewBox="0 0 92.87 92.91" id="icon-close">
    <path d="M51 46.46L91.84 5.6a3.21 3.21 0 0 0 .08-4.6 3.28 3.28 0 0 0-4.64 0l-40.8 40.84L5.6 1A3.28 3.28 0 0 0 1 5.6l40.82 40.86L1 87.31A3.28 3.28 0 0 0 5.6 92l40.88-40.93L87.28 92a3.28 3.28 0 0 0 4.64 0 3.21 3.21 0 0 0-.08-4.64z"/>
</symbol><symbol viewBox="0 0 33.94 33.94" id="icon-close-small">
    <g data-name="Layer 2">
        <path d="M28.28 0L16.97 11.31 5.66 0 0 5.66l11.31 11.31L0 28.28l5.66 5.66 11.31-11.31 11.31 11.31 5.66-5.66-11.31-11.31L33.94 5.66 28.28 0z" data-name="Layer 1"/>
    </g>
</symbol><symbol viewBox="0 0 86.41 102.41" id="icon-download">
    <g data-name="Layer 2">
        <path d="M80 22.41H62.41a4.8 4.8 0 1 0 0 9.59H76.8v60.8H9.59V32H24a4.8 4.8 0 1 0 0-9.59H6.41A6.41 6.41 0 0 0 0 28.8V96a6.42 6.42 0 0 0 6.41 6.41H80A6.42 6.42 0 0 0 86.41 96V28.8A6.41 6.41 0 0 0 80 22.41zM22.41 52.8a4.76 4.76 0 0 0 1.4 3.39l16 16a4.8 4.8 0 0 0 6.78 0l16-16A4.73 4.73 0 0 0 64 52.8a4.8 4.8 0 0 0-4.8-4.8 4.73 4.73 0 0 0-3.39 1.41L48 57.22V4.8a4.8 4.8 0 1 0-9.59 0v52.42l-7.82-7.81A4.73 4.73 0 0 0 27.2 48a4.8 4.8 0 0 0-4.79 4.8z" fill-rule="evenodd" data-name="Layer 1"/>
    </g>
</symbol><symbol viewBox="0 0 90 62.7" id="icon-envelope">
    <path d="M44.1 34.2a1.91 1.91 0 0 0 1.8 0L90 8.6V5.2A5.16 5.16 0 0 0 84.8 0H5.2A5.29 5.29 0 0 0 0 5.2v3.4zM90 15.8L64.3 30.7 90 45.6V15.8z"/>
    <path d="M58.1 34.3L49 39.6a7.82 7.82 0 0 1-8 0l-9.1-5.3L0 52.8v4.7a5.16 5.16 0 0 0 5.2 5.2h79.6a5.16 5.16 0 0 0 5.2-5.2v-4.7zM25.7 30.7L0 15.8v29.8l25.7-14.9z"/>
</symbol><symbol viewBox="0 0 92 63.81" id="icon-menu">
    <path d="M88.28 35.62H3.72a3.72 3.72 0 1 1 0-7.43h84.56a3.72 3.72 0 1 1 0 7.43zM88.28 7.43H3.72a3.72 3.72 0 1 1 0-7.43h84.56a3.72 3.72 0 1 1 0 7.43zM88.28 63.81H3.72a3.72 3.72 0 1 1 0-7.43h84.56a3.72 3.72 0 1 1 0 7.43z"/>
    <path d="M88.28 35.62H3.72a3.72 3.72 0 1 1 0-7.43h84.56a3.72 3.72 0 1 1 0 7.43zM88.28 7.43H3.72a3.72 3.72 0 1 1 0-7.43h84.56a3.72 3.72 0 1 1 0 7.43zM88.28 63.81H3.72a3.72 3.72 0 1 1 0-7.43h84.56a3.72 3.72 0 1 1 0 7.43z"/>
</symbol><symbol viewBox="0 0 29 3" id="icon-minus">
    <g data-name="Layer 2">
        <path d="M0 0h29v3H0z" data-name="Layer 1"/>
    </g>
</symbol><symbol viewBox="0 0 103.9 103.9" id="icon-mobile-play">
    <g data-name="Layer 2">
        <g data-name="Layer 1">
            <path d="M52 103.9A52 52 0 1 1 103.9 52 52 52 0 0 1 52 103.9zM52 4a48 48 0 1 0 48 48A48 48 0 0 0 52 4z"/>
            <path d="M52 74a2 2 0 0 1-1.52-.7L23.12 41.16a2 2 0 0 1 3.05-2.58L52 68.94l25.73-30.36a2 2 0 0 1 3 2.58L53.47 73.33A2 2 0 0 1 52 74z"/>
        </g>
    </g>
</symbol><symbol viewBox="0 0 42.88 42.52" id="icon-nav-search">
    <g data-name="Layer 2">
        <path d="M32.87 28.23a19.18 19.18 0 0 0 2.86-10 17 17 0 0 0-5.36-12.87A17.53 17.53 0 0 0 17.86 0 18.37 18.37 0 0 0 5 5.36a18.12 18.12 0 0 0-5 12.86 17.89 17.89 0 0 0 5 12.51 18.41 18.41 0 0 0 12.86 5.36 19.18 19.18 0 0 0 10.72-3.58l9.65 10 4.65-4.29zm-7-2.23A11 11 0 0 1 18 29.38 11.85 11.85 0 0 1 9.9 26a10.74 10.74 0 0 1-3-7.79 11 11 0 0 1 3-8.13A11.85 11.85 0 0 1 18 6.69a11 11 0 0 1 7.79 3.39 11.22 11.22 0 0 1 3.39 8.13A11 11 0 0 1 25.82 26z" data-name="Layer 1"/>
    </g>
</symbol><symbol viewBox="0 0 40 40" id="icon-open-small">
    <g data-name="Layer 2">
        <path d="M40 16H24V0h-8v16H0v8h16v16h8V24h16v-8z" data-name="Layer 1"/>
    </g>
</symbol><symbol viewBox="0 0 29 29" id="icon-plus">
    <g data-name="Layer 2">
        <path d="M29 13H16V0h-3v13H0v3h13v13h3V16h13v-3z" data-name="Layer 1"/>
    </g>
</symbol><symbol viewBox="0 0 40 40" id="icon-plus-sign">
    <g data-name="Layer 2">
        <path d="M40 19H21V0h-2v19H0v2h19v19h2V21h19v-2z" data-name="Layer 1"/>
    </g>
</symbol><symbol viewBox="0 0 54 57.18" id="icon-search">
    <g data-name="Layer 2">
        <path d="M54 52.31L34.35 32.38a19.55 19.55 0 1 0-5.15 4.22l20.29 20.58zM4.89 19.57a14.68 14.68 0 1 1 14.68 14.68A14.7 14.7 0 0 1 4.89 19.57z" fill-rule="evenodd" data-name="Layer 1"/>
    </g>
</symbol><symbol viewBox="0 0 99.24 99.24" id="icon-share">
    <g data-name="Layer 2">
        <g data-name="Layer 1">
            <path d="M0 49.62a49.62 49.62 0 1 1 49.62 49.62A49.61 49.61 0 0 1 0 49.62z"/>
            <path d="M40.67 47.64l15.17-8.76A8.25 8.25 0 1 0 53.32 33a7.7 7.7 0 0 0 .25 2l-15.16 8.7a8.25 8.25 0 1 0-5.73 14.17 8.18 8.18 0 0 0 5.73-2.33l15.16 8.76a7.87 7.87 0 0 0-.25 2 8.25 8.25 0 1 0 8.24-8.3 8.12 8.12 0 0 0-5.72 2.32L40.67 51.6a7.74 7.74 0 0 0 .26-2 7.57 7.57 0 0 0-.26-1.96z" fill="#fff"/>
        </g>
    </g>
</symbol><symbol viewBox="0 0 113.46 113.6" id="icon-signup">
    <path d="M63.26 20.23H24.52a5.16 5.16 0 0 0 0 10.32h38.74a5.16 5.16 0 0 0 0-10.32zM68.41 44.75a5.16 5.16 0 0 0-5.15-5.17H24.52a5.17 5.17 0 0 0 0 10.34h38.74a5.16 5.16 0 0 0 5.15-5.17zM43.89 69.28a5.17 5.17 0 1 0 0-10.33H24.52a5.17 5.17 0 0 0 0 10.33z"/>
    <path d="M82.87 86.83l-5.42 3.58v12.85H10.33V10.33h67.12v20.4l10.33-17.89V5.16A5.16 5.16 0 0 0 82.61 0H5.16A5.16 5.16 0 0 0 0 5.16v103.27a5.16 5.16 0 0 0 5.16 5.17h77.45a5.16 5.16 0 0 0 5.17-5.17V80l-2.47 4.26a7.67 7.67 0 0 1-2.44 2.59z"/>
    <path d="M113.4 23.91c-.11-.46-1.2-4.64-7.76-8.43S94.91 12.83 94.45 13A2.61 2.61 0 0 0 93 14.15L60.72 70a2.62 2.62 0 0 0-.35 1.14l-1.2 20.16a2.58 2.58 0 0 0 4 2.32L80 82.53a2.59 2.59 0 0 0 .82-.86l32.28-55.91a2.58 2.58 0 0 0 .28-1.85zM69.67 84.72a23.49 23.49 0 0 0-2.89-2 21.8 21.8 0 0 0-3.12-1.52l.36-6a16.24 16.24 0 0 1 5.88 2.18 16.46 16.46 0 0 1 4.83 4zM36 93.14c.18 1 1.37 1.35 2.18 1.69s1.69-.3 2.33-.61c3.94-1.91 9.28.33 13.5.33 2.49 0 2.49-3.87 0-3.87-4.92 0-9-1.24-13.9-.43a2.34 2.34 0 0 0-.4-1.19 3.06 3.06 0 0 0-3.23-1.81c-.09-.18-.16-.37-.26-.56a1.88 1.88 0 0 0-1.22-.85c1.37-2.37 2.24-4.88 1.35-6.92a1.93 1.93 0 0 0-1.67-1c-2.58-.1-4.8 2.62-6.46 4.25a124.49 124.49 0 0 0-11.39 13.35c-1.52 2 1.84 3.89 3.34 2a139.12 139.12 0 0 1 10-11.74c-.86 1.41-1.78 2.81-2.73 4.14-1.38 2.13 1.91 3.94 3.33 2a4.42 4.42 0 0 1 1.26-1.22c-.1.24-.19.47-.3.71-.08.15-.15.31-.21.45-.87 2.17 2.36 3.16 3.54 1.5a12.12 12.12 0 0 0 .94-1.43 6.41 6.41 0 0 0 0 1.21z"/>
</symbol><symbol viewBox="0 0 112 112" id="icon-social-linkedin">
    <path d="M107.33 0H4.67A4.67 4.67 0 0 0 0 4.67v102.66A4.67 4.67 0 0 0 4.67 112h102.66a4.67 4.67 0 0 0 4.67-4.67V4.67A4.67 4.67 0 0 0 107.33 0zM33.22 95.44H16.6V42h16.62zm-8.31-60.75a9.64 9.64 0 1 1 9.63-9.64 9.63 9.63 0 0 1-9.63 9.64zm70.53 60.75H78.83v-26c0-6.19-.11-14.17-8.63-14.17S60.24 62 60.24 69v26.44H43.65V42h15.92v7.3h.23c2.21-4.2 7.63-8.63 15.71-8.63 16.82 0 19.93 11.07 19.93 25.46z"/>
</symbol><symbol viewBox="0 0 128 104.02" id="icon-social-twitter">
    <path d="M128 12.31a52.64 52.64 0 0 1-15.08 4.14 26.34 26.34 0 0 0 11.54-14.53 52.32 52.32 0 0 1-16.67 6.37A26.28 26.28 0 0 0 63 32.24 74.55 74.55 0 0 1 8.91 4.81 26.3 26.3 0 0 0 17 39.87a26.17 26.17 0 0 1-11.9-3.29v.33a26.27 26.27 0 0 0 21.11 25.75 26.38 26.38 0 0 1-6.92.92 25.94 25.94 0 0 1-4.94-.47 26.28 26.28 0 0 0 24.53 18.24A52.72 52.72 0 0 1 6.26 92.59 51.71 51.71 0 0 1 0 92.22 74.27 74.27 0 0 0 40.26 104C88.56 104 115 64 115 29.31c0-1.14 0-2.28-.07-3.4A53.28 53.28 0 0 0 128 12.31z"/>
</symbol><symbol viewBox="0 0 128 90.03" id="icon-social-youtube">
    <path d="M126.72 19.42s-1.25-8.82-5.09-12.7c-4.86-5.1-10.32-5.13-12.82-5.43C90.9 0 64 0 64 0S37.1 0 19.19 1.29c-2.5.3-8 .33-12.82 5.43-3.84 3.88-5.09 12.7-5.09 12.7A193.66 193.66 0 0 0 0 40.14v9.71a193.66 193.66 0 0 0 1.28 20.72s1.25 8.82 5.09 12.7c4.87 5.1 11.26 4.94 14.11 5.47C30.72 89.72 64 90 64 90s26.9 0 44.81-1.34c2.5-.3 8-.32 12.82-5.42 3.84-3.88 5.09-12.7 5.09-12.7A193.66 193.66 0 0 0 128 49.85v-9.71a193.66 193.66 0 0 0-1.28-20.72zm-75.93 42.2v-36L85.37 43.7z"/>
</symbol><symbol viewBox="0 0 80.51 90.71" id="icon-study">
    <path d="M77.14 45.74c-.82-1.37-4.64-6.27-4.91-8.45 0-1.91 3-3.27 1.91-9.54C70.32 5.94 51.52-1.42 31.35.22 13.63 1.58-.27 12.76 0 32.38c.28 13.08 6.55 15.26 10.91 25.89 1.63 4.36 1.36 8.18.27 12.81-3.27 15.54-13.36 19.63 1.91 19.63h25.62c10.08 0 10.35-3.82 16.08-12.27 2.45.82 4.9 1.64 6.81 2.18 3.27 1.09 7.91 2.46 9.54-1.91.82-2.18.82-4.63 1.09-6.81s2.18-2.18 2.73-4.63c0-.82-.28-1.64-.28-2.18a15.76 15.76 0 0 0 1.09-2.18v-5.45a21.48 21.48 0 0 0 3.82-3.28c2.41-2.99-.59-5.99-2.45-8.44zM57 52.67l-9.65-10a19.2 19.2 0 0 1-10.72 3.58 18.41 18.41 0 0 1-12.86-5.36 17.84 17.84 0 0 1-5-12.51 18.08 18.08 0 0 1 5-12.86 18.37 18.37 0 0 1 12.86-5.36 17.55 17.55 0 0 1 12.51 5.36 17 17 0 0 1 5.36 12.85 19.18 19.18 0 0 1-2.86 10l10 10z"/>
    <path d="M28.67 20.23a11.84 11.84 0 0 1 8.13-3.39 11 11 0 0 1 7.79 3.39A11.22 11.22 0 0 1 48 28.36a11 11 0 0 1-3.38 7.79 11 11 0 0 1-7.79 3.38 11.83 11.83 0 0 1-8.13-3.38 10.75 10.75 0 0 1-3.05-7.79 11 11 0 0 1 3.05-8.13z"/>
</symbol><symbol viewBox="0 0 121.02 121.02" id="icon-video-play">
    <g data-name="Layer 2">
        <g data-name="Layer 1">
            <path d="M57.84 32.93l23.8 23.8H22.69v7.56h58.95l-23.8 23.8 5.34 5.35 32.93-32.93-32.93-32.93-5.34 5.35z"/>
            <path d="M60.51 0A60.51 60.51 0 1 0 121 60.51 60.59 60.59 0 0 0 60.51 0zm0 113.46a53 53 0 1 1 53-52.95 53 53 0 0 1-53 52.95z"/>
        </g>
    </g>
</symbol><symbol viewBox="0 0 148 148" id="icon-video-play-mob">
    <g data-name="Layer 2">
        <path d="M74 8.22A65.78 65.78 0 1 1 8.22 74 65.78 65.78 0 0 1 74 8.22M74 0a74 74 0 1 0 74 74A74 74 0 0 0 74 0zm-8.19 56.5L92.07 74 65.78 91.53v-35m0-8.26a8.22 8.22 0 0 0-8.24 8.22v35.04a8.22 8.22 0 0 0 8.22 8.23 8.15 8.15 0 0 0 4.54-1.39l26.33-17.53a8.22 8.22 0 0 0 2.28-11.4 8.39 8.39 0 0 0-2.28-2.28L70.34 49.63a8.15 8.15 0 0 0-4.54-1.39z" data-name="Layer 1"/>
    </g>
</symbol><symbol viewBox="0 0 581.9 49.19" id="logo-altasciences">
    <path fill="#7ec681" d="M19.85.48L0 48.37h10.38l14.04-35.33 14.02 35.33H49.1L29.25.48h-9.4zM64.17.82v47.55h33.28v-9.51H74.36V.82H64.17zM103.14.82v9.64h14.09v37.91h10.19V10.46h14.09V.82h-38.37zM171.74 13l6.16 15.43h-12.31zM167.18.48l-19.85 47.89h10.38L162 37.7h19.59l4.23 10.67h10.65L176.57.48z"/>
    <path d="M209.44 41.44l3.25-3.94c4.83 4.49 9.46 6.73 15.88 6.73 6.21 0 10.32-3.4 10.32-8.09V36c0-4.41-2.32-6.92-12-9-10.66-2.38-15.55-5.91-15.55-13.72v-.14c0-7.47 6.42-13 15.22-13A23.76 23.76 0 0 1 242.79 6l-3 4.14A20 20 0 0 0 226.39 5c-6 0-9.87 3.4-9.87 7.68v.13c0 4.49 2.39 7 12.58 9.24s15.08 6.18 15.08 13.45v.14c0 8.15-6.61 13.45-15.81 13.45-7.35 0-13.37-2.51-18.93-7.61M258.07 24.73v-.14c0-13.45 9.79-24.59 23.42-24.59 8.41 0 13.44 3.06 18.07 7.54L296 11.48C292.08 7.68 287.71 5 281.43 5c-10.26 0-17.93 8.56-17.93 19.5v.13c0 11 7.74 19.64 17.93 19.64 6.35 0 10.52-2.52 14.95-6.86l3.44 3.46c-4.83 5-10.12 8.36-18.52 8.36-13.37 0-23.23-10.81-23.23-24.46M314.96.82h5.23v47.56h-5.23zM339.04.82v47.55h33.82v-4.89h-28.59V26.83h25.27v-4.89h-25.27V5.71h28.25V.82h-33.48zM422.74.82v38.11L393.55.82h-4.89v47.55h5.09V9.38l29.91 38.99h4.17V.82h-5.09zM444.16 24.73v-.14C444.16 11.14 454 0 467.58 0 476 0 481 3.06 485.65 7.54l-3.57 3.94C478.17 7.68 473.81 5 467.52 5c-10.26 0-17.93 8.56-17.93 19.5v.13c0 11 7.74 19.64 17.93 19.64 6.35 0 10.52-2.52 15-6.86l3.45 3.46c-4.84 5-10.13 8.36-18.53 8.36-13.37 0-23.23-10.81-23.23-24.46M500.59.82v47.55h33.81v-4.89h-28.58V26.83h25.27v-4.89h-25.27V5.71h28.25V.82h-33.48zM547.16 41.44l3.24-3.94c4.84 4.49 9.47 6.73 15.89 6.73 6.22 0 10.32-3.4 10.32-8.09V36c0-4.41-2.32-6.92-12.05-9C553.91 24.59 549 21.06 549 13.25v-.14c0-7.47 6.41-13 15.22-13A23.76 23.76 0 0 1 580.51 6l-3 4.14A20 20 0 0 0 564.1 5c-6 0-9.86 3.4-9.86 7.68v.13c0 4.49 2.39 7 12.57 9.24 10.33 2.31 15.09 6.18 15.09 13.45v.14c0 8.15-6.62 13.45-15.81 13.45-7.35 0-13.37-2.51-18.93-7.61"/>
</symbol></svg>